<svg width="480" height="150" viewBox="0 0 480 150" xmlns="http://www.w3.org/2000/svg"><defs><radialGradient id="vign" cx="50%" cy="42%" r="80%"><stop offset="55%" stop-color="#0a0803"/><stop offset="100%" stop-color="#050402"/></radialGradient><radialGradient id="halo" cx="50%" cy="50%" r="50%"><stop offset="0" stop-color="#ffb02e" stop-opacity="0.22"/><stop offset="1" stop-color="#ffb02e" stop-opacity="0"/></radialGradient><linearGradient id="bars" x1="0" y1="0" x2="1" y2="0"><stop offset="0" stop-color="#b45309"/><stop offset="0.4" stop-color="#ffb02e"/><stop offset="1" stop-color="#ffb02e"/></linearGradient><filter id="glow" x="-8%" y="-60%" width="116%" height="220%"><feGaussianBlur stdDeviation="2.6" result="b"/><feMerge><feMergeNode in="b"/><feMergeNode in="SourceGraphic"/></feMerge></filter></defs><rect width="480" height="150" rx="12" fill="url(#vign)"/><rect x="0.5" y="0.5" width="479" height="149" rx="12" fill="none" stroke="#ffb02e" stroke-opacity="0.16"/><g stroke="#ffb02e" stroke-opacity="0.04" stroke-width="1"><line x1="0" y1="0" x2="0" y2="150"/><line x1="48" y1="0" x2="48" y2="150"/><line x1="96" y1="0" x2="96" y2="150"/><line x1="144" y1="0" x2="144" y2="150"/><line x1="192" y1="0" x2="192" y2="150"/><line x1="240" y1="0" x2="240" y2="150"/><line x1="288" y1="0" x2="288" y2="150"/><line x1="336" y1="0" x2="336" y2="150"/><line x1="384" y1="0" x2="384" y2="150"/><line x1="432" y1="0" x2="432" y2="150"/><line x1="480" y1="0" x2="480" y2="150"/><line x1="0" y1="0" x2="480" y2="0"/><line x1="0" y1="48" x2="480" y2="48"/><line x1="0" y1="96" x2="480" y2="96"/><line x1="0" y1="144" x2="480" y2="144"/></g><g transform="translate(66,75)"><rect x="-32" y="-32" width="64" height="64" rx="14" fill="none" stroke="#ffb02e" stroke-opacity="0.45" stroke-width="1.5"/><g stroke="#ffb02e" stroke-width="2.1" fill="none" stroke-linecap="round" stroke-linejoin="round" filter="url(#glow)"><path d="M-15 -11h15a3 3 0 0 1 3 3v6a3 3 0 0 1 -3 3h-7l-5 4v-4h-3a3 3 0 0 1 -3 -3v-6a3 3 0 0 1 3 -3z"/><path d="M3 -1h11a3 3 0 0 1 3 3v6a3 3 0 0 1 -3 3v4l-5 -4"/></g></g><text x="124" y="62" font-family="ui-monospace, 'SF Mono', 'JetBrains Mono', Menlo, Consolas, monospace" font-size="21" font-weight="700" fill="#f4ead6">front-desk-interpreter</text><text x="124" y="84" font-family="ui-monospace, 'SF Mono', 'JetBrains Mono', Menlo, Consolas, monospace" font-size="10.5" fill="#ffb02e" letter-spacing="1.5">HOSPITALITY</text><text x="124" y="110" font-family="ui-monospace, 'SF Mono', 'JetBrains Mono', Menlo, Consolas, monospace" font-size="12" fill="#bcab8e">Two languages, one front desk. Real-time, bot…</text></svg>
