<svg width="480" height="150" viewBox="0 0 480 150" xmlns="http://www.w3.org/2000/svg"><defs><radialGradient id="vign" cx="50%" cy="42%" r="80%"><stop offset="55%" stop-color="#0a0803"/><stop offset="100%" stop-color="#050402"/></radialGradient><filter id="glow" x="-8%" y="-60%" width="116%" height="220%"><feGaussianBlur stdDeviation="2.6" result="b"/><feMerge><feMergeNode in="b"/><feMergeNode in="SourceGraphic"/></feMerge></filter></defs><rect width="480" height="150" rx="12" fill="url(#vign)"/><rect x="0.5" y="0.5" width="479" height="149" rx="12" fill="none" stroke="#ffb02e" stroke-opacity="0.16"/><g stroke="#ffb02e" stroke-opacity="0.04" stroke-width="1"><line x1="0" y1="0" x2="0" y2="150"/><line x1="48" y1="0" x2="48" y2="150"/><line x1="96" y1="0" x2="96" y2="150"/><line x1="144" y1="0" x2="144" y2="150"/><line x1="192" y1="0" x2="192" y2="150"/><line x1="240" y1="0" x2="240" y2="150"/><line x1="288" y1="0" x2="288" y2="150"/><line x1="336" y1="0" x2="336" y2="150"/><line x1="384" y1="0" x2="384" y2="150"/><line x1="432" y1="0" x2="432" y2="150"/><line x1="480" y1="0" x2="480" y2="150"/><line x1="0" y1="0" x2="480" y2="0"/><line x1="0" y1="48" x2="480" y2="48"/><line x1="0" y1="96" x2="480" y2="96"/><line x1="0" y1="144" x2="480" y2="144"/></g><g transform="translate(66,75)"><rect x="-32" y="-32" width="64" height="64" rx="14" fill="none" stroke="#ffb02e" stroke-opacity="0.45" stroke-width="1.5"/><g stroke="#ffb02e" stroke-width="2.1" fill="none" stroke-linecap="round" stroke-linejoin="round" filter="url(#glow)"><path d="M-14 4h28 M-12 4l1 -5l3 -6h16l3 6l1 5"/><path d="M-7 -7h12"/><circle cx="-7" cy="5" r="3"/><circle cx="8" cy="5" r="3"/></g></g><text x="124" y="62" font-family="ui-monospace, 'SF Mono', 'JetBrains Mono', Menlo, Consolas, monospace" font-size="21" font-weight="700" fill="#f4ead6">roadside-dispatch</text><text x="124" y="84" font-family="ui-monospace, 'SF Mono', 'JetBrains Mono', Menlo, Consolas, monospace" font-size="10.5" fill="#ffb02e" letter-spacing="1.5">AUTOMOTIVE</text><text x="124" y="110" font-family="ui-monospace, 'SF Mono', 'JetBrains Mono', Menlo, Consolas, monospace" font-size="12" fill="#bcab8e">Roadside dispatcher: scores caller audio with…</text></svg>
