<svg width="1280" height="320" viewBox="0 0 1280 320" xmlns="http://www.w3.org/2000/svg"><defs><radialGradient id="vign" cx="50%" cy="42%" r="80%"><stop offset="55%" stop-color="#0a0803"/><stop offset="100%" stop-color="#050402"/></radialGradient><radialGradient id="halo" cx="50%" cy="50%" r="50%"><stop offset="0" stop-color="#ffb02e" stop-opacity="0.22"/><stop offset="1" stop-color="#ffb02e" stop-opacity="0"/></radialGradient><linearGradient id="bars" x1="0" y1="0" x2="1" y2="0"><stop offset="0" stop-color="#b45309"/><stop offset="0.4" stop-color="#ffb02e"/><stop offset="1" stop-color="#ffb02e"/></linearGradient><filter id="glow" x="-8%" y="-60%" width="116%" height="220%"><feGaussianBlur stdDeviation="2.6" result="b"/><feMerge><feMergeNode in="b"/><feMergeNode in="SourceGraphic"/></feMerge></filter></defs><rect width="1280" height="320" fill="url(#vign)"/><g stroke="#ffb02e" stroke-opacity="0.05" stroke-width="1"><line x1="0" y1="0" x2="0" y2="320"/><line x1="64" y1="0" x2="64" y2="320"/><line x1="128" y1="0" x2="128" y2="320"/><line x1="192" y1="0" x2="192" y2="320"/><line x1="256" y1="0" x2="256" y2="320"/><line x1="320" y1="0" x2="320" y2="320"/><line x1="384" y1="0" x2="384" y2="320"/><line x1="448" y1="0" x2="448" y2="320"/><line x1="512" y1="0" x2="512" y2="320"/><line x1="576" y1="0" x2="576" y2="320"/><line x1="640" y1="0" x2="640" y2="320"/><line x1="704" y1="0" x2="704" y2="320"/><line x1="768" y1="0" x2="768" y2="320"/><line x1="832" y1="0" x2="832" y2="320"/><line x1="896" y1="0" x2="896" y2="320"/><line x1="960" y1="0" x2="960" y2="320"/><line x1="1024" y1="0" x2="1024" y2="320"/><line x1="1088" y1="0" x2="1088" y2="320"/><line x1="1152" y1="0" x2="1152" y2="320"/><line x1="1216" y1="0" x2="1216" y2="320"/><line x1="1280" y1="0" x2="1280" y2="320"/><line x1="0" y1="0" x2="1280" y2="0"/><line x1="0" y1="64" x2="1280" y2="64"/><line x1="0" y1="128" x2="1280" y2="128"/><line x1="0" y1="192" x2="1280" y2="192"/><line x1="0" y1="256" x2="1280" y2="256"/><line x1="0" y1="320" x2="1280" y2="320"/></g><ellipse cx="360" cy="250" rx="430" ry="150" fill="url(#halo)"/><g filter="url(#glow)"><rect x="147.0" y="88.2" width="6" height="79.6" rx="3" fill="url(#bars)"/><rect x="164.2" y="82.9" width="6" height="90.2" rx="3" fill="url(#bars)"/><rect x="181.4" y="78.6" width="6" height="98.9" rx="3" fill="url(#bars)"/><rect x="198.6" y="75.7" width="6" height="104.7" rx="3" fill="url(#bars)"/><rect x="215.8" y="74.6" width="6" height="106.8" rx="3" fill="url(#bars)"/><rect x="233.0" y="75.4" width="6" height="105.2" rx="3" fill="url(#bars)"/><rect x="250.2" y="78.0" width="6" height="100.0" rx="3" fill="url(#bars)"/><rect x="267.4" y="81.8" width="6" height="92.4" rx="3" fill="url(#bars)"/><rect x="284.5" y="86.2" width="6" height="83.5" rx="3" fill="url(#bars)"/><rect x="301.7" y="90.4" width="6" height="75.2" rx="3" fill="url(#bars)"/><rect x="318.9" y="93.5" width="6" height="69.0" rx="3" fill="url(#bars)"/><rect x="336.1" y="95.0" width="6" height="66.0" rx="3" fill="url(#bars)"/><rect x="353.3" y="94.4" width="6" height="67.2" rx="3" fill="url(#bars)"/><rect x="370.5" y="91.8" width="6" height="72.4" rx="3" fill="url(#bars)"/><rect x="387.7" y="87.4" width="6" height="81.1" rx="3" fill="url(#bars)"/><rect x="404.9" y="82.0" width="6" height="91.9" rx="3" fill="url(#bars)"/><rect x="422.1" y="76.5" width="6" height="102.9" rx="3" fill="url(#bars)"/><rect x="439.3" y="71.9" width="6" height="112.2" rx="3" fill="url(#bars)"/><rect x="456.5" y="69.0" width="6" height="117.9" rx="3" fill="url(#bars)"/><rect x="473.7" y="68.7" width="6" height="118.7" rx="3" fill="url(#bars)"/><rect x="490.9" y="71.1" width="6" height="113.8" rx="3" fill="url(#bars)"/><rect x="508.1" y="76.2" width="6" height="103.6" rx="3" fill="url(#bars)"/><rect x="525.2" y="83.4" width="6" height="89.1" rx="3" fill="url(#bars)"/><rect x="542.4" y="92.0" width="6" height="72.1" rx="3" fill="url(#bars)"/><rect x="559.6" y="100.6" width="6" height="54.8" rx="3" fill="url(#bars)"/><rect x="576.8" y="108.2" width="6" height="39.5" rx="3" fill="url(#bars)"/><rect x="594.0" y="113.7" width="6" height="28.6" rx="3" fill="url(#bars)"/><rect x="611.2" y="114.5" width="6" height="27.0" rx="3" fill="url(#bars)"/><rect x="628.4" y="114.5" width="6" height="27.0" rx="3" fill="url(#bars)"/><rect x="645.6" y="112.0" width="6" height="32.0" rx="3" fill="url(#bars)"/><rect x="662.8" y="105.7" width="6" height="44.5" rx="3" fill="url(#bars)"/><rect x="680.0" y="97.9" width="6" height="60.3" rx="3" fill="url(#bars)"/><rect x="697.2" y="89.5" width="6" height="77.0" rx="3" fill="url(#bars)"/><rect x="714.4" y="81.9" width="6" height="92.2" rx="3" fill="url(#bars)"/><rect x="731.6" y="76.0" width="6" height="104.0" rx="3" fill="url(#bars)"/><rect x="748.8" y="72.6" width="6" height="110.8" rx="3" fill="url(#bars)"/><rect x="765.9" y="72.0" width="6" height="112.0" rx="3" fill="url(#bars)"/><rect x="783.1" y="74.0" width="6" height="108.0" rx="3" fill="url(#bars)"/><rect x="800.3" y="78.2" width="6" height="99.7" rx="3" fill="url(#bars)"/><rect x="817.5" y="83.5" width="6" height="88.9" rx="3" fill="url(#bars)"/><rect x="834.7" y="89.1" width="6" height="77.7" rx="3" fill="url(#bars)"/><rect x="851.9" y="94.0" width="6" height="68.1" rx="3" fill="url(#bars)"/><rect x="869.1" y="97.1" width="6" height="61.7" rx="3" fill="url(#bars)"/><rect x="886.3" y="98.1" width="6" height="59.7" rx="3" fill="url(#bars)"/><rect x="903.5" y="96.8" width="6" height="62.3" rx="3" fill="url(#bars)"/><rect x="920.7" y="93.4" width="6" height="69.1" rx="3" fill="url(#bars)"/><rect x="937.9" y="88.5" width="6" height="79.0" rx="3" fill="url(#bars)"/><rect x="955.1" y="82.9" width="6" height="90.3" rx="3" fill="url(#bars)"/><rect x="972.3" y="77.4" width="6" height="101.2" rx="3" fill="url(#bars)"/><rect x="989.5" y="73.0" width="6" height="109.9" rx="3" fill="url(#bars)"/><rect x="1006.6" y="70.4" width="6" height="115.3" rx="3" fill="url(#bars)"/><rect x="1023.8" y="69.8" width="6" height="116.4" rx="3" fill="url(#bars)"/><rect x="1041.0" y="71.4" width="6" height="113.2" rx="3" fill="url(#bars)"/><rect x="1058.2" y="75.0" width="6" height="106.1" rx="3" fill="url(#bars)"/><rect x="1075.4" y="80.0" width="6" height="96.1" rx="3" fill="url(#bars)"/><rect x="1092.6" y="85.7" width="6" height="84.5" rx="3" fill="url(#bars)"/><rect x="1109.8" y="91.6" width="6" height="72.8" rx="3" fill="url(#bars)"/><rect x="1127.0" y="96.9" width="6" height="62.1" rx="3" fill="url(#bars)"/></g><text x="60" y="252" font-family="ui-monospace, 'SF Mono', 'JetBrains Mono', Menlo, Consolas, monospace" font-size="60" font-weight="700" fill="#f4ead6" letter-spacing="-1">awesome-voice-apps</text><text x="64" y="290" font-family="ui-monospace, 'SF Mono', 'JetBrains Mono', Menlo, Consolas, monospace" font-size="19" fill="#bcab8e">small voice agents you can clone and talk to</text><text x="60" y="46" font-family="ui-monospace, 'SF Mono', 'JetBrains Mono', Menlo, Consolas, monospace" font-size="13" fill="#ffb02e" letter-spacing="3">&#9679; REC 00:14</text></svg>
