<svg width="1040" height="130" viewBox="0 0 1040 130" xmlns="http://www.w3.org/2000/svg"><defs><radialGradient id="vign" cx="50%" cy="42%" r="80%"><stop offset="55%" stop-color="#0a0803"/><stop offset="100%" stop-color="#050402"/></radialGradient><radialGradient id="halo" cx="50%" cy="50%" r="50%"><stop offset="0" stop-color="#ffb02e" stop-opacity="0.22"/><stop offset="1" stop-color="#ffb02e" stop-opacity="0"/></radialGradient><linearGradient id="bars" x1="0" y1="0" x2="1" y2="0"><stop offset="0" stop-color="#b45309"/><stop offset="0.4" stop-color="#ffb02e"/><stop offset="1" stop-color="#ffb02e"/></linearGradient><filter id="glow" x="-8%" y="-60%" width="116%" height="220%"><feGaussianBlur stdDeviation="2.6" result="b"/><feMerge><feMergeNode in="b"/><feMergeNode in="SourceGraphic"/></feMerge></filter></defs><rect width="1040" height="130" rx="10" fill="url(#vign)"/><g stroke="#ffb02e" stroke-opacity="0.05" stroke-width="1"><line x1="0" y1="0" x2="0" y2="130"/><line x1="52" y1="0" x2="52" y2="130"/><line x1="104" y1="0" x2="104" y2="130"/><line x1="156" y1="0" x2="156" y2="130"/><line x1="208" y1="0" x2="208" y2="130"/><line x1="260" y1="0" x2="260" y2="130"/><line x1="312" y1="0" x2="312" y2="130"/><line x1="364" y1="0" x2="364" y2="130"/><line x1="416" y1="0" x2="416" y2="130"/><line x1="468" y1="0" x2="468" y2="130"/><line x1="520" y1="0" x2="520" y2="130"/><line x1="572" y1="0" x2="572" y2="130"/><line x1="624" y1="0" x2="624" y2="130"/><line x1="676" y1="0" x2="676" y2="130"/><line x1="728" y1="0" x2="728" y2="130"/><line x1="780" y1="0" x2="780" y2="130"/><line x1="832" y1="0" x2="832" y2="130"/><line x1="884" y1="0" x2="884" y2="130"/><line x1="936" y1="0" x2="936" y2="130"/><line x1="988" y1="0" x2="988" y2="130"/><line x1="1040" y1="0" x2="1040" y2="130"/><line x1="0" y1="0" x2="1040" y2="0"/><line x1="0" y1="52" x2="1040" y2="52"/><line x1="0" y1="104" x2="1040" y2="104"/></g><line x1="204" y1="65" x2="836" y2="65" stroke="#ffb02e" stroke-opacity="0.3" stroke-width="1.5" stroke-dasharray="2 6"/><path d="M240.0,61.8 L241.9,53.7 L243.7,50.0 L245.6,52.3 L247.5,59.5 L249.4,68.8 L251.2,76.7 L253.1,80.0 L255.0,77.4 L256.9,69.9 L258.7,60.6 L260.6,52.9 L262.5,50.0 L264.3,53.0 L266.2,60.7 L268.1,70.0 L270.0,77.5 L271.8,80.0 L273.7,76.6 L275.6,68.7 L277.5,59.4 L279.3,52.2 L281.2,50.1 L283.1,53.8 L284.9,61.9 L286.8,71.2 L288.7,78.1 L290.6,79.9 L292.4,75.8 L294.3,67.5 L296.2,58.2 L298.1,51.6 L299.9,50.2 L301.8,54.6 L303.7,63.1 L305.5,72.3 L307.4,78.7 L309.3,79.7 L311.2,74.9 L313.0,66.2 L314.9,57.1 L316.8,51.1 L318.7,50.5 L320.5,55.6 L322.4,64.4 L324.3,73.4 L326.1,79.1 L328.0,79.3 L329.9,73.9 L331.8,65.0 L333.6,56.1 L335.5,50.7 L337.4,50.9 L339.3,56.6 L341.1,65.6 L343.0,74.4 L344.9,79.5 L346.7,78.9 L348.6,72.9 L350.5,63.7 L352.4,55.1 L354.2,50.3 L356.1,51.3 L358.0,57.7 L359.9,66.9 L361.7,75.4 L363.6,79.8 L365.5,78.4 L367.3,71.8 L369.2,62.5 L371.1,54.2 L373.0,50.1 L374.8,51.9 L376.7,58.8 L378.6,68.1 L380.5,76.2 L382.3,79.9 L384.2,77.8 L386.1,70.6 L387.9,61.2 L389.8,53.3 L391.7,50.0 L393.6,52.6 L395.4,60.0 L397.3,69.4 L399.2,77.0 L401.1,80.0 L402.9,77.1 L404.8,69.4 L406.7,60.0 L408.5,52.6 L410.4,50.0 L412.3,53.3 L414.2,61.2 L416.0,70.6 L417.9,77.7 L419.8,79.9 L421.7,76.3 L423.5,68.2 L425.4,58.9 L427.3,51.9 L429.1,50.1 L431.0,54.1 L432.9,62.4 L434.8,71.7 L436.6,78.4 L438.5,79.8 L440.4,75.4 L442.3,67.0 L444.1,57.7 L446.0,51.4" fill="none" stroke="#ffb02e" stroke-width="2" filter="url(#glow)"/><path d="M594.0,74.1 L595.9,65.2 L597.7,56.2 L599.6,50.7 L601.5,50.8 L603.4,56.4 L605.2,65.4 L607.1,74.3 L609.0,79.5 L610.9,79.0 L612.7,73.0 L614.6,63.9 L616.5,55.2 L618.3,50.4 L620.2,51.2 L622.1,57.5 L624.0,66.7 L625.8,75.2 L627.7,79.7 L629.6,78.5 L631.5,71.9 L633.3,62.7 L635.2,54.3 L637.1,50.2 L638.9,51.8 L640.8,58.6 L642.7,67.9 L644.6,76.1 L646.4,79.9 L648.3,77.9 L650.2,70.8 L652.1,61.4 L653.9,53.5 L655.8,50.0 L657.7,52.4 L659.5,59.8 L661.4,69.2 L663.3,76.9 L665.2,80.0 L667.0,77.2 L668.9,69.6 L670.8,60.2 L672.7,52.7 L674.5,50.0 L676.4,53.2 L678.3,61.0 L680.1,70.4 L682.0,77.6 L683.9,80.0 L685.8,76.4 L687.6,68.4 L689.5,59.1 L691.4,52.0 L693.3,50.1 L695.1,54.0 L697.0,62.2 L698.9,71.5 L700.7,78.3 L702.6,79.8 L704.5,75.6 L706.4,67.2 L708.2,57.9 L710.1,51.4 L712.0,50.3 L713.9,54.9 L715.7,63.5 L717.6,72.6 L719.5,78.8 L721.3,79.6 L723.2,74.6 L725.1,65.9 L727.0,56.8 L728.8,51.0 L730.7,50.6 L732.6,55.9 L734.5,64.7 L736.3,73.7 L738.2,79.3 L740.1,79.2 L741.9,73.6 L743.8,64.7 L745.7,55.8 L747.6,50.6 L749.4,51.0 L751.3,56.9 L753.2,66.0 L755.1,74.7 L756.9,79.6 L758.8,78.8 L760.7,72.6 L762.5,63.4 L764.4,54.8 L766.3,50.3 L768.2,51.5 L770.0,58.0 L771.9,67.2 L773.8,75.6 L775.7,79.8 L777.5,78.2 L779.4,71.5 L781.3,62.2 L783.1,54.0 L785.0,50.1 L786.9,52.1 L788.8,59.1 L790.6,68.5 L792.5,76.5 L794.4,80.0 L796.3,77.6 L798.1,70.3 L800.0,60.9" fill="none" stroke="#ffb02e" stroke-width="2" filter="url(#glow)"/><g transform="translate(170,65)"><rect x="-34" y="-34" width="68" height="68" rx="12" fill="none" stroke="#ffb02e" stroke-opacity="0.5" stroke-width="1.5"/><g stroke="#ffb02e" stroke-width="2.2" fill="none" stroke-linecap="round" stroke-linejoin="round" filter="url(#glow)"><path d="M-10 6 a12 12 0 1 1 16 4 c-4 3 -4 7 -1 10"/></g><text x="0" y="54" font-family="ui-monospace, 'SF Mono', 'JetBrains Mono', Menlo, Consolas, monospace" font-size="13" fill="#bcab8e" text-anchor="middle">deepgram &#183; hear</text></g><g transform="translate(520,65)"><rect x="-34" y="-34" width="68" height="68" rx="12" fill="none" stroke="#ffb02e" stroke-opacity="0.5" stroke-width="1.5"/><g stroke="#ffb02e" stroke-width="2.2" fill="none" stroke-linecap="round" stroke-linejoin="round" filter="url(#glow)"><rect x="-11" y="-11" width="22" height="22" rx="4"/><path d="M-11 -4h-6 M-11 4h-6 M11 -4h6 M11 4h6 M-4 -11v-6 M4 -11v-6 M-4 11v6 M4 11v6"/></g><text x="0" y="54" font-family="ui-monospace, 'SF Mono', 'JetBrains Mono', Menlo, Consolas, monospace" font-size="13" fill="#bcab8e" text-anchor="middle">llm &#183; think</text></g><g transform="translate(870,65)"><rect x="-34" y="-34" width="68" height="68" rx="12" fill="none" stroke="#ffb02e" stroke-opacity="0.5" stroke-width="1.5"/><g stroke="#ffb02e" stroke-width="2.2" fill="none" stroke-linecap="round" stroke-linejoin="round" filter="url(#glow)"><path d="M-11 -7 l17 7 l-17 7 z"/><path d="M10 -4 a7 7 0 0 1 0 8 M14 -8 a12 12 0 0 1 0 16"/></g><text x="0" y="54" font-family="ui-monospace, 'SF Mono', 'JetBrains Mono', Menlo, Consolas, monospace" font-size="13" fill="#bcab8e" text-anchor="middle">cartesia &#183; speak</text></g></svg>
